<svg xmlns="http://www.w3.org/2000/svg" viewBox="0 0 165.52 105.97" width="165.52" height="105.97">
  <path d="M150.698 0H14.823c-.566 0-1.133 0-1.698.003-.477.004-.953.009-1.43.022-1.039.028-2.085.09-3.113.274a10.51 10.51 0 0 0-2.958.975 9.897 9.897 0 0 0-4.35 4.35 10.59 10.59 0 0 0-.975 2.96C.113 9.611.052 10.658.024 11.696a69.755 69.755 0 0 0-.022 1.43C0 13.69 0 14.256 0 14.823v76.318c0 .567 0 1.132.002 1.699.004.476.01.953.022 1.43.028 1.036.09 2.084.275 3.11a10.59 10.59 0 0 0 .975 2.96 9.9 9.9 0 0 0 1.83 2.52 9.847 9.847 0 0 0 2.52 1.83c.947.483 1.917.79 2.958.977 1.028.183 2.074.245 3.113.273.477.011.953.017 1.43.02.565.004 1.132.004 1.698.004h135.875c.565 0 1.132 0 1.697-.004.476-.003.953-.009 1.431-.02 1.037-.028 2.085-.09 3.113-.273a10.565 10.565 0 0 0 2.958-.977 9.897 9.897 0 0 0 4.35-4.35c.483-.947.789-1.917.974-2.96.186-1.026.246-2.074.274-3.11.013-.477.02-.954.022-1.43.004-.567.004-1.132.004-1.699V14.824c0-.567 0-1.133-.004-1.699a63.067 63.067 0 0 0-.022-1.429c-.028-1.038-.088-2.085-.274-3.112a10.4 10.4 0 0 0-.974-2.96 9.897 9.897 0 0 0-4.35-4.35A10.458 10.458 0 0 0 155.94.3c-1.028-.185-2.076-.246-3.113-.274a71.364 71.364 0 0 0-1.431-.022C150.83 0 150.264 0 149.698 0z" fill="#000"/>
  <path d="M150.698 3.532l1.672.003c.452.004.905.008 1.36.021.795.02 1.7.057 2.552.206.715.124 1.36.332 1.97.647a6.356 6.356 0 0 1 2.795 2.796c.314.61.52 1.256.645 1.97.149.854.186 1.755.208 2.552.012.468.017.935.02 1.362l.003 1.674v76.318l-.003 1.673c-.003.428-.008.896-.02 1.364-.022.795-.059 1.7-.208 2.55a6.893 6.893 0 0 1-.645 1.97 6.362 6.362 0 0 1-2.795 2.797 6.865 6.865 0 0 1-1.97.646c-.854.149-1.756.186-2.552.207-.454.012-.908.017-1.36.02l-1.672.004H14.801l-1.672-.004a66.456 66.456 0 0 1-1.362-.02c-.794-.021-1.697-.058-2.55-.207a6.86 6.86 0 0 1-1.97-.646 6.362 6.362 0 0 1-2.796-2.796 6.858 6.858 0 0 1-.646-1.97c-.149-.851-.186-1.756-.207-2.551a66.082 66.082 0 0 1-.02-1.364L3.532 91.14V14.823l.002-1.674c.003-.427.008-.894.02-1.362.021-.796.058-1.698.207-2.552a6.87 6.87 0 0 1 .646-1.97 6.362 6.362 0 0 1 2.796-2.796 6.855 6.855 0 0 1 1.97-.646c.853-.15 1.756-.187 2.55-.207.458-.013.905-.018 1.362-.021L14.823 3.53h135.875" fill="#fff"/>
  <g fill="#000">
    <path d="M43.508 35.77c1.404-1.755 2.356-4.112 2.105-6.52-2.054.102-4.56 1.355-6.012 3.112-1.303 1.504-2.456 3.96-2.156 6.268 2.307.17 4.56-1.152 6.063-2.86"/>
    <path d="M45.587 39.08c-3.35-.2-6.196 1.9-7.793 1.9-1.6 0-4.049-1.8-6.698-1.751-3.447.05-6.645 2-8.395 5.1-3.597 6.2-.95 15.4 2.548 20.45 1.698 2.5 3.747 5.25 6.445 5.151 2.548-.1 3.547-1.65 6.645-1.65 3.097 0 3.997 1.65 6.696 1.6 2.798-.05 4.548-2.5 6.247-5 1.95-2.85 2.747-5.6 2.797-5.75-.05-.05-5.396-2.101-5.446-8.251-.05-5.15 4.198-7.6 4.398-7.751-2.399-3.548-6.147-3.948-7.447-4.048"/>
    <path d="M78.473 32.443c7.413 0 12.58 5.1 12.58 12.533 0 7.457-5.26 12.58-12.72 12.58h-8.2v13.02H65.29V32.443h13.182zm-8.34 20.12h6.8c5.17 0 8.11-2.79 8.11-7.564 0-4.773-2.94-7.54-8.086-7.54H70.13v15.105z"/>
    <path d="M92.764 59.238c0-4.89 3.742-7.89 10.387-8.26l7.645-.44v-2.16c0-3.11-2.093-4.96-5.6-4.96-3.32 0-5.39 1.52-5.88 3.86h-4.42c.3-4.56 4.18-7.93 10.49-7.93 6.17 0 10.12 3.23 10.12 8.3v17.37h-4.63v-4.14h-.1c-1.36 2.77-4.33 4.49-7.41 4.49-4.61 0-7.6-2.85-7.6-7.13zm18.032-2.42v-2.21l-6.88.42c-3.44.23-5.39 1.73-5.39 4.14 0 2.46 2 4.07 5.06 4.07 3.97 0 7.21-2.72 7.21-6.42z"/>
    <path d="M119.502 75.14c-.35 0-.83-.05-1.1-.1v-4.07c.26.05.97.1 1.33.1 2.31 0 3.6-1.01 4.39-3.65l.47-1.61-9.36-25.97h5.1l6.79 22h.1l6.79-22h4.98l-9.73 27.2c-2.22 6.26-4.77 8.1-9.77 8.1z"/>
  </g>
</svg>
